<svg width="16" height="17" viewBox="0 0 16 17" fill="none" xmlns="http://www.w3.org/2000/svg">
<path d="M8 14.5C11.3137 14.5 14 11.8137 14 8.5C14 5.18629 11.3137 2.5 8 2.5C4.68629 2.5 2 5.18629 2 8.5C2 11.8137 4.68629 14.5 8 14.5Z" stroke="white" stroke-width="1.3" stroke-linecap="round" stroke-linejoin="round"/>
<path d="M9.86667 6.49994C9.7459 6.29045 9.57043 6.11774 9.35905 6.00031C9.14768 5.88288 8.90834 5.82514 8.66667 5.83327H7.33333C6.97971 5.83327 6.64057 5.97375 6.39052 6.2238C6.14048 6.47385 6 6.81299 6 7.16661C6 7.52023 6.14048 7.85937 6.39052 8.10942C6.64057 8.35947 6.97971 8.49994 7.33333 8.49994H8.66667C9.02029 8.49994 9.35943 8.64042 9.60948 8.89047C9.85952 9.14051 10 9.47965 10 9.83327C10 10.1869 9.85952 10.526 9.60948 10.7761C9.35943 11.0261 9.02029 11.1666 8.66667 11.1666H7.33333C7.09166 11.1747 6.85232 11.117 6.64095 10.9996C6.42957 10.8821 6.2541 10.7094 6.13333 10.4999" stroke="white" stroke-width="1.3" stroke-linecap="round" stroke-linejoin="round"/>
<path d="M8 11.1667V12.5M8 4.5V5.83333V4.5Z" stroke="white" stroke-width="1.3" stroke-linecap="round" stroke-linejoin="round"/>
</svg>
