<svg width="16" height="17" viewBox="0 0 16 17" fill="none" xmlns="http://www.w3.org/2000/svg">
<path d="M4.66634 13.1667C5.40272 13.1667 5.99967 12.5697 5.99967 11.8333C5.99967 11.097 5.40272 10.5 4.66634 10.5C3.92996 10.5 3.33301 11.097 3.33301 11.8333C3.33301 12.5697 3.92996 13.1667 4.66634 13.1667Z" stroke="white" stroke-width="1.3" stroke-linecap="round" stroke-linejoin="round"/>
<path d="M11.3333 13.1667C12.0697 13.1667 12.6667 12.5697 12.6667 11.8333C12.6667 11.097 12.0697 10.5 11.3333 10.5C10.597 10.5 10 11.097 10 11.8333C10 12.5697 10.597 13.1667 11.3333 13.1667Z" stroke="white" stroke-width="1.3" stroke-linecap="round" stroke-linejoin="round"/>
<path d="M3.33301 11.8334H1.99967V9.16671M1.33301 3.83337H8.66634V11.8334M5.99967 11.8334H9.99967M12.6663 11.8334H13.9997V7.83337M13.9997 7.83337H8.66634M13.9997 7.83337L11.9997 4.50004H8.66634" stroke="white" stroke-width="1.3" stroke-linecap="round" stroke-linejoin="round"/>
<path d="M2 6.5H4.66667" stroke="white" stroke-width="1.3" stroke-linecap="round" stroke-linejoin="round"/>
</svg>
