<svg width="20px" height="20px" viewBox="0 0 16 17" version="1.1" xmlns="http://www.w3.org/2000/svg" xmlns:xlink="http://www.w3.org/1999/xlink">
    <g id="Welcome" stroke="currentColor" stroke-width="1" fill="currentColor" fill-rule="evenodd">
        <g id="Банки-список" transform="translate(-631.000000, -369.000000)" stroke="#313A40">
            <g id="Page-1" transform="translate(632.000000, 370.000000)">
                <path d="M2.89662745,1.36768627 C3.67231373,1.22101961 4.18054902,2.09552941 4.56721569,2.69945098 C4.94368627,3.28533333 5.40721569,3.97317647 5.22054902,4.73552941 C5.11623529,5.16376471 4.84643137,5.26964706 4.55388235,5.52219608 C4.2652549,5.77082353 3.82603922,5.99984314 3.71937255,6.38258824 C3.5452549,7.00454902 3.92643137,7.65631373 4.16172549,8.02807843 C4.69819608,8.86729412 5.3452549,9.62337255 6.17270588,10.2986667 C6.57270588,10.6265098 7.12878431,11.0641569 7.68564706,10.952 C8.51780392,10.7833725 8.62054902,9.88454902 9.52721569,9.74807843 C10.3891765,9.61709804 10.9727059,10.2429804 11.4597647,10.6618039 C11.9287843,11.0672941 12.6856471,11.5865098 12.6346667,12.2806275 C12.6040784,12.6798431 12.2840784,12.9276863 12.0064314,13.1684706 C11.7248627,13.4147451 11.4770196,13.6908235 11.1985882,13.8727843 C10.5232941,14.3135686 9.69505882,14.5292549 8.74368627,14.5002353 C7.81113725,14.4712157 7.06839216,14.1543529 6.39466667,13.7951373 C5.07623529,13.0916078 4.03466667,12.1033725 3.0534902,11.0006275 C2.088,9.9174902 1.19701961,8.63513725 0.703686275,7.21631373 C0.0887843137,5.44533333 0.41427451,3.6265098 1.40956863,2.49160784 C1.57819608,2.29866667 1.84407843,2.09788235 2.08721569,1.89082353 C2.33035294,1.68298039 2.55545098,1.432 2.89662745,1.36768627 L2.89662745,1.36768627 Z" id="Stroke-1"></path>
                <path d="M8.49835294,0.379921569 C11.2371765,1.08031373 13.5320784,2.9987451 14.0261961,6.64345098" id="Stroke-3"></path>
                <path d="M7.76486275,3.90290196 C9.23780392,4.34447059 10.2527059,5.57819608 10.5758431,6.90917647" id="Stroke-5"></path>
            </g>
        </g>
    </g>
</svg>