<svg width="16" height="17" viewBox="0 0 16 17" fill="none" xmlns="http://www.w3.org/2000/svg">
<path d="M6 10.5L10 6.5" stroke="white" stroke-width="1.3" stroke-linecap="round" stroke-linejoin="round"/>
<path d="M6.33333 7.16667C6.51743 7.16667 6.66667 7.01743 6.66667 6.83333C6.66667 6.64924 6.51743 6.5 6.33333 6.5C6.14924 6.5 6 6.64924 6 6.83333C6 7.01743 6.14924 7.16667 6.33333 7.16667Z" stroke="white" stroke-width="1.3" stroke-linecap="round" stroke-linejoin="round"/>
<path d="M9.66634 10.5C9.85044 10.5 9.99967 10.3508 9.99967 10.1667C9.99967 9.98261 9.85044 9.83337 9.66634 9.83337C9.48225 9.83337 9.33301 9.98261 9.33301 10.1667C9.33301 10.3508 9.48225 10.5 9.66634 10.5Z" stroke="white" stroke-width="1.3" stroke-linecap="round" stroke-linejoin="round"/>
<path d="M3.33364 5.29994C3.33364 4.91096 3.48816 4.53791 3.76322 4.26285C4.03827 3.9878 4.41132 3.83327 4.80031 3.83327H5.46697C5.85424 3.83305 6.2257 3.67968 6.50031 3.40661L6.96697 2.93994C7.10327 2.80287 7.26532 2.6941 7.4438 2.61988C7.62228 2.54566 7.81368 2.50745 8.00697 2.50745C8.20027 2.50745 8.39167 2.54566 8.57015 2.61988C8.74863 2.6941 8.91068 2.80287 9.04697 2.93994L9.51364 3.40661C9.78825 3.67968 10.1597 3.83305 10.547 3.83327H11.2136C11.6026 3.83327 11.9757 3.9878 12.2507 4.26285C12.5258 4.53791 12.6803 4.91096 12.6803 5.29994V5.96661C12.6805 6.35387 12.8339 6.72534 13.107 6.99994L13.5736 7.46661C13.7107 7.60291 13.8195 7.76496 13.8937 7.94344C13.9679 8.12192 14.0061 8.31331 14.0061 8.50661C14.0061 8.69991 13.9679 8.8913 13.8937 9.06978C13.8195 9.24826 13.7107 9.41031 13.5736 9.54661L13.107 10.0133C12.8339 10.2879 12.6805 10.6593 12.6803 11.0466V11.7133C12.6803 12.1023 12.5258 12.4753 12.2507 12.7504C11.9757 13.0254 11.6026 13.1799 11.2136 13.1799H10.547C10.1597 13.1802 9.78825 13.3335 9.51364 13.6066L9.04697 14.0733C8.91068 14.2103 8.74863 14.3191 8.57015 14.3933C8.39167 14.4676 8.20027 14.5058 8.00697 14.5058C7.81368 14.5058 7.62228 14.4676 7.4438 14.3933C7.26532 14.3191 7.10327 14.2103 6.96697 14.0733L6.50031 13.6066C6.2257 13.3335 5.85424 13.1802 5.46697 13.1799H4.80031C4.41132 13.1799 4.03827 13.0254 3.76322 12.7504C3.48816 12.4753 3.33364 12.1023 3.33364 11.7133V11.0466C3.33342 10.6593 3.18004 10.2879 2.90697 10.0133L2.44031 9.54661C2.30324 9.41031 2.19447 9.24826 2.12025 9.06978C2.04602 8.8913 2.00781 8.69991 2.00781 8.50661C2.00781 8.31331 2.04602 8.12192 2.12025 7.94344C2.19447 7.76496 2.30324 7.60291 2.44031 7.46661L2.90697 6.99994C3.18004 6.72534 3.33342 6.35387 3.33364 5.96661V5.29994" stroke="white" stroke-width="1.3" stroke-linecap="round" stroke-linejoin="round"/>
</svg>
