<svg width="32" height="32" viewBox="0 0 32 32" fill="none" xmlns="http://www.w3.org/2000/svg">
<path d="M9.33301 13.3333L15.9997 5.33325L22.6663 13.3333" stroke="white" stroke-width="2" stroke-linecap="round" stroke-linejoin="round"/>
<path d="M28 13.3333L25.3333 23.9999C25.2087 24.7642 24.8735 25.4496 24.3863 25.9368C23.899 26.4241 23.2905 26.6823 22.6667 26.6666H9.33333C8.70948 26.6823 8.10096 26.4241 7.61371 25.9368C7.12646 25.4496 6.79134 24.7642 6.66667 23.9999L4 13.3333H28Z" stroke="white" stroke-width="2" stroke-linecap="round" stroke-linejoin="round"/>
<path d="M15.9997 22.6666C17.4724 22.6666 18.6663 21.4727 18.6663 19.9999C18.6663 18.5272 17.4724 17.3333 15.9997 17.3333C14.5269 17.3333 13.333 18.5272 13.333 19.9999C13.333 21.4727 14.5269 22.6666 15.9997 22.6666Z" stroke="white" stroke-width="2" stroke-linecap="round" stroke-linejoin="round"/>
</svg>
