<svg width="57" height="40" viewBox="0 0 57 40" fill="none" xmlns="http://www.w3.org/2000/svg">
<g clip-path="url(#clip0_856_5814)">
<rect width="57" height="40" rx="8" fill="#FA0001"/>
<path d="M43.3541 22.0545C42.6939 22.1561 42.3385 22.2616 41.8111 22.5233C40.8033 23.0194 40.0182 23.9334 39.6471 25.0467C39.4439 25.6561 39.3775 26.1248 39.401 26.785C39.4635 28.41 40.2877 29.8202 41.6314 30.5897C42.7603 31.2342 44.44 31.3866 45.776 30.9608C47.0728 30.5428 48.0807 29.5858 48.5611 28.3123C48.7799 27.7342 48.858 27.3006 48.858 26.6287C48.8619 25.7811 48.7369 25.2264 48.3697 24.4803C47.7525 23.2225 46.5768 22.3514 45.151 22.0975C44.6666 22.0116 43.7916 21.9881 43.3541 22.0545ZM44.733 24.2108C45.2018 24.3045 45.565 24.4998 45.8893 24.828C46.3775 25.3162 46.5885 25.8553 46.5924 26.6092C46.5963 26.9725 46.5768 27.1131 46.5025 27.3514C46.3736 27.7733 46.2018 28.0741 45.9322 28.3436C45.6549 28.6287 45.4439 28.7577 45.0299 28.9022C44.7447 28.9998 44.6744 29.0077 44.1353 29.0077C43.6041 29.0077 43.5182 28.9959 43.233 28.9022C42.4596 28.6444 41.8814 28.0194 41.6744 27.2147C41.5924 26.9061 41.5924 26.2342 41.6744 25.9256C41.8697 25.1678 42.3814 24.5858 43.0807 24.3202C43.5572 24.1444 44.1939 24.1014 44.733 24.2108Z" fill="white"/>
<path d="M55.3305 23.8008C55.0844 23.8477 54.8423 23.9766 54.6469 24.1602C54.5219 24.2812 42.268 37.8945 40.6704 39.6914C40.4555 39.9297 40.4321 40.0625 40.5727 40.1953C40.6626 40.2773 40.6899 40.2812 41.7446 40.2812C42.7407 40.2812 42.8384 40.2734 43.0415 40.1992C43.1587 40.1562 43.311 40.0742 43.3735 40.0234C43.4946 39.918 57.4712 24.2969 57.5259 24.2031C57.5923 24.0859 57.5688 23.9023 57.4751 23.8281C57.3969 23.7656 57.3071 23.7578 56.4438 23.7617C55.9282 23.7656 55.4243 23.7812 55.3305 23.8008Z" fill="white"/>
<path d="M52.9832 33.0547C52.5574 33.1328 52.0066 33.3047 51.6746 33.4726C50.4363 34.1015 49.5496 35.3633 49.3543 36.7812C49.073 38.793 50.0574 40.7109 51.7839 41.5312C52.8425 42.0351 54.2605 42.1328 55.4636 41.7851C57.0964 41.3125 58.2683 39.9648 58.5496 38.2383C58.7019 37.289 58.5418 36.2383 58.116 35.3906C57.5574 34.2812 56.5457 33.4609 55.3464 33.1484C54.6394 32.9648 53.7136 32.9258 52.9832 33.0547ZM54.8269 35.1523C55.616 35.4258 56.1433 36.0156 56.3425 36.8476C56.7019 38.3515 55.8504 39.6836 54.3933 39.8945C53.0183 40.0937 51.8855 39.3672 51.5769 38.0898C51.2527 36.7344 51.9675 35.4219 53.198 35.1094C53.5574 35.0195 53.6355 35.0117 54.0847 35.0273C54.4168 35.039 54.5652 35.0625 54.8269 35.1523Z" fill="white"/>
<path d="M9.25852 10.0824H10.6818C10.5398 8.9233 9.50568 8.10227 8.15909 8.10227C6.60511 8.10227 5.37784 9.19602 5.37784 11.0994C5.37784 12.9403 6.50852 14.0795 8.17614 14.0795C9.6733 14.0795 10.7443 13.1506 10.7443 11.5881V10.8182H8.2358V11.8438H9.3892C9.375 12.4574 8.94886 12.8466 8.1875 12.8466C7.31534 12.8466 6.8125 12.2017 6.8125 11.0824C6.8125 9.97159 7.34375 9.33523 8.1875 9.33523C8.75 9.33523 9.13352 9.6108 9.25852 10.0824ZM17.0646 11.0909C17.0646 9.16761 15.8487 8.10227 14.2862 8.10227C12.718 8.10227 11.5107 9.16761 11.5107 11.0909C11.5107 13.0057 12.718 14.0795 14.2862 14.0795C15.8487 14.0795 17.0646 13.0142 17.0646 11.0909ZM15.6271 11.0909C15.6271 12.2301 15.1271 12.8466 14.2862 12.8466C13.4482 12.8466 12.9453 12.2301 12.9453 11.0909C12.9453 9.9517 13.4482 9.33523 14.2862 9.33523C15.1271 9.33523 15.6271 9.9517 15.6271 11.0909ZM23.3771 11.0909C23.3771 9.16761 22.1612 8.10227 20.5987 8.10227C19.0305 8.10227 17.8232 9.16761 17.8232 11.0909C17.8232 13.0057 19.0305 14.0795 20.5987 14.0795C22.1612 14.0795 23.3771 13.0142 23.3771 11.0909ZM21.9396 11.0909C21.9396 12.2301 21.4396 12.8466 20.5987 12.8466C19.7607 12.8466 19.2578 12.2301 19.2578 11.0909C19.2578 9.9517 19.7607 9.33523 20.5987 9.33523C21.4396 9.33523 21.9396 9.9517 21.9396 11.0909ZM26.3487 14C28.1214 14 29.2209 12.9062 29.2209 11.0881C29.2209 9.27273 28.1214 8.18182 26.3459 8.18182H24.1982V14H26.3487ZM25.6044 12.8011V9.38068H26.2749C27.2749 9.38068 27.8118 9.83523 27.8118 11.0881C27.8118 12.3466 27.2749 12.8011 26.2947 12.8011H25.6044ZM35.3232 10.2898C35.1811 8.89773 34.1442 8.10227 32.7379 8.10227C31.1868 8.10227 29.9794 9.16761 29.9794 11.0909C29.9794 13.0057 31.1584 14.0795 32.7379 14.0795C34.3345 14.0795 35.218 12.9943 35.3232 11.9631L33.9027 11.9545C33.8033 12.5142 33.3828 12.8466 32.7663 12.8466C31.9368 12.8466 31.4141 12.2472 31.4141 11.0909C31.4141 9.98011 31.9254 9.33523 32.7749 9.33523C33.4141 9.33523 33.8317 9.70739 33.9027 10.2898H35.3232ZM37.2379 14L37.6214 12.7784H39.63L40.0135 14H41.5249L39.5618 8.18182H37.6896L35.7266 14H37.2379ZM37.9567 11.7102L38.6016 9.64773H38.647L39.2947 11.7102H37.9567ZM42.1513 14H43.5575V12.0085H44.2791L45.3416 14H46.8757L45.6683 11.7841C46.3075 11.4943 46.6768 10.9233 46.6768 10.1193C46.6768 8.9233 45.8615 8.18182 44.5547 8.18182H42.1513V14ZM43.5575 10.9006V9.31534H44.2507C44.8814 9.31534 45.2195 9.57955 45.2195 10.1193C45.2195 10.6591 44.8814 10.9006 44.2507 10.9006H43.5575ZM49.5987 14C51.3714 14 52.4709 12.9062 52.4709 11.0881C52.4709 9.27273 51.3714 8.18182 49.5959 8.18182H47.4482V14H49.5987ZM48.8544 12.8011V9.38068H49.5249C50.5249 9.38068 51.0618 9.83523 51.0618 11.0881C51.0618 12.3466 50.5249 12.8011 49.5447 12.8011H48.8544Z" fill="white"/>
</g>
<defs>
<clipPath id="clip0_856_5814">
<rect width="57" height="40" rx="8" fill="white"/>
</clipPath>
</defs>
</svg>
