<svg width="60" height="46" viewBox="0 0 60 46" fill="none" xmlns="http://www.w3.org/2000/svg">
<path fill-rule="evenodd" clip-rule="evenodd" d="M7.5 0.5H47.5C51.6421 0.5 55 3.85786 55 8C55 10.7614 52.7614 13 50 13H42.5C38.3579 13 35 16.3579 35 20.5V25.5C35 29.6421 38.3579 33 42.5 33H50C52.7614 33 55 35.2386 55 38C55 42.1421 51.6421 45.5 47.5 45.5H7.5C3.35786 45.5 0 42.1421 0 38V8C0 3.85786 3.35786 0.5 7.5 0.5ZM60 20.5V25.5C60 28.2614 57.7614 30.5 55 30.5H42.5C39.7386 30.5 37.5 28.2614 37.5 25.5V20.5C37.5 17.7386 39.7386 15.5 42.5 15.5H55C57.7614 15.5 60 17.7386 60 20.5ZM57.5 23.0001C57.5 21.6193 56.3807 20.5001 55 20.5001C53.6193 20.5001 52.5 21.6193 52.5 23.0001C52.5 24.3808 53.6193 25.5001 55 25.5001C56.3807 25.5001 57.5 24.3808 57.5 23.0001Z" fill="#E31E24"/>
</svg>
