<svg width="20" height="20" viewBox="0 0 20 20" fill="none" xmlns="http://www.w3.org/2000/svg">
<path d="M19.324 3.93917L13.2641 9.99969L19.324 16.0599C20.2254 16.9616 20.2254 18.4223 19.324 19.324C18.8736 19.7744 18.2832 19.9998 17.693 19.9998C17.1018 19.9998 16.5113 19.7748 16.0613 19.324L10 13.2631L3.93929 19.324C3.48897 19.7744 2.89845 19.9997 2.30775 19.9997C1.71722 19.9997 1.1271 19.7747 0.676379 19.324C-0.225 18.4227 -0.225 16.9619 0.676379 16.0599L6.7361 9.99963L0.676034 3.93917C-0.225345 3.03779 -0.225345 1.57677 0.676034 0.675395C1.57724 -0.225295 3.0374 -0.225295 3.93895 0.675395L9.99999 6.73592L16.0606 0.675395C16.9623 -0.225295 18.4226 -0.225295 19.3237 0.675395C20.2254 1.57677 20.2254 3.03779 19.324 3.93917Z" fill="#E31E24"/>
</svg>
