<svg width="16" height="16" viewBox="0 0 16 16" fill="none" xmlns="http://www.w3.org/2000/svg">
<path d="M15.9321 8.48005C15.8403 8.31959 15.6694 8.22107 15.4847 8.22107H15.3794L13.443 1.85758C13.2881 1.34859 12.7589 1.05275 12.2442 1.18734L8.82693 2.08098V0.993971C8.82693 0.537144 8.45677 0.166992 7.99998 0.166992C7.54318 0.166992 7.17303 0.537144 7.17303 0.993971V2.51517L3.53392 3.46133C3.0925 3.5761 2.74191 3.91136 2.60669 4.34696C2.04939 6.14218 0.619968 10.763 0.619968 10.763H0.515206C0.33031 10.763 0.159871 10.8621 0.0680931 11.0223C-0.0237171 11.1827 -0.0226377 11.38 0.0710368 11.5391C0.693953 12.5957 1.8434 13.305 3.15893 13.305C4.47443 13.305 5.62358 12.5959 6.24649 11.5391C6.3404 11.38 6.34177 11.1825 6.24996 11.022C6.15818 10.8616 5.98722 10.763 5.80255 10.763H5.69733L3.68218 4.28668L7.173 3.37014V14.179H4.69219C4.2354 14.179 3.86525 14.5491 3.86525 15.006C3.86525 15.4628 4.2354 15.8329 4.69219 15.8329H11.3077C11.7645 15.8329 12.1347 15.4628 12.1347 15.006C12.1347 14.5491 11.7645 14.179 11.3077 14.179H8.82689V2.93589L12.2246 2.04405L10.302 8.22107H10.1973C10.0124 8.22107 9.84197 8.32014 9.75016 8.48028C9.65839 8.64071 9.6595 8.83804 9.75317 8.99716C10.376 10.0537 11.5255 10.763 12.841 10.763C14.1565 10.763 15.3056 10.054 15.9285 8.99716C16.0226 8.83807 16.0239 8.64051 15.9321 8.48005ZM4.8314 10.763H1.48623L3.15896 5.38791L4.8314 10.763ZM11.1683 8.22111L12.841 2.84601L14.5135 8.22111H11.1683Z" fill="white"/>
</svg>
