<svg width="40" height="40" viewBox="0 0 40 40" fill="none" xmlns="http://www.w3.org/2000/svg">
<rect width="40" height="40" rx="20" fill="#E31E24"/>
<g clip-path="url(#clip0)">
<path d="M31.8981 20.7201C31.7604 20.4794 31.5041 20.3316 31.2271 20.3316H31.0692L28.1645 10.7864C27.9322 10.0229 27.1384 9.57912 26.3663 9.78101L21.2404 11.1215V9.49096C21.2404 8.80572 20.6852 8.25049 20 8.25049C19.3148 8.25049 18.7595 8.80572 18.7595 9.49096V11.7728L13.3009 13.192C12.6387 13.3642 12.1129 13.867 11.91 14.5204C11.0741 17.2133 8.92995 24.1446 8.92995 24.1446H8.77281C8.49546 24.1446 8.23981 24.2932 8.10214 24.5334C7.96442 24.7741 7.96604 25.0701 8.10656 25.3086C9.04093 26.8935 10.7651 27.9575 12.7384 27.9575C14.7116 27.9575 16.4354 26.8939 17.3697 25.3086C17.5106 25.07 17.5127 24.7737 17.3749 24.533C17.2373 24.2923 16.9808 24.1446 16.7038 24.1446H16.546L13.5233 14.43L18.7595 13.0552V29.2685H15.0383C14.3531 29.2685 13.7979 29.8237 13.7979 30.509C13.7979 31.1941 14.3531 31.7493 15.0383 31.7493H24.9616C25.6468 31.7493 26.202 31.1941 26.202 30.509C26.202 29.8237 25.6468 29.2685 24.9616 29.2685H21.2403V12.4038L26.3369 11.0661L23.4531 20.3316H23.296C23.0186 20.3316 22.763 20.4802 22.6252 20.7204C22.4876 20.9611 22.4892 21.2571 22.6298 21.4957C23.564 23.0806 25.2882 24.1445 27.2614 24.1445C29.2347 24.1445 30.9585 23.081 31.8927 21.4957C32.0338 21.2571 32.0359 20.9608 31.8981 20.7201ZM15.2471 24.1446H10.2293L12.7384 16.0819L15.2471 24.1446ZM24.7524 20.3317L27.2615 12.269L29.7703 20.3317H24.7524Z" fill="white"/>
</g>
<rect width="40" height="40" rx="20" stroke="#959595"/>
<defs>
<clipPath id="clip0">
<rect width="24" height="24" fill="white" transform="translate(8 8)"/>
</clipPath>
</defs>
</svg>
