<svg width="24" height="24" viewBox="0 0 24 24" fill="none" xmlns="http://www.w3.org/2000/svg">
<path d="M23.8979 12.7201C23.7601 12.4794 23.5038 12.3316 23.2268 12.3316H23.0689L20.1643 2.78637C19.9319 2.02288 19.1382 1.57912 18.3661 1.78101L13.2401 3.12146V1.49096C13.2401 0.805716 12.6849 0.250488 11.9997 0.250488C11.3145 0.250488 10.7593 0.805716 10.7593 1.49096V3.77275L5.30064 5.192C4.6385 5.36416 4.11262 5.86704 3.9098 6.52044C3.07384 9.21327 0.929708 16.1446 0.929708 16.1446H0.772565C0.495221 16.1446 0.239562 16.2932 0.101896 16.5334C-0.0358198 16.7741 -0.0342008 17.0701 0.106311 17.3086C1.04069 18.8935 2.76485 19.9575 4.73815 19.9575C6.7114 19.9575 8.43512 18.8939 9.36949 17.3086C9.51035 17.07 9.51241 16.7737 9.37469 16.533C9.23703 16.2923 8.98059 16.1446 8.70358 16.1446H8.54575L5.52303 6.43002L10.7593 5.05522V21.2685H7.03805C6.35286 21.2685 5.79763 21.8237 5.79763 22.509C5.79763 23.1941 6.35286 23.7493 7.03805 23.7493H16.9614C17.6465 23.7493 18.2018 23.1941 18.2018 22.509C18.2018 21.8237 17.6465 21.2685 16.9614 21.2685H13.2401V4.40383L18.3366 3.06607L15.4528 12.3316H15.2957C15.0183 12.3316 14.7627 12.4802 14.625 12.7204C14.4873 12.9611 14.489 13.2571 14.6295 13.4957C15.5638 15.0806 17.288 16.1445 19.2612 16.1445C21.2345 16.1445 22.9582 15.081 23.8925 13.4957C24.0336 13.2571 24.0356 12.9608 23.8979 12.7201ZM7.24685 16.1446H2.2291L4.7382 8.08186L7.24685 16.1446ZM16.7522 12.3317L19.2613 4.26901L21.77 12.3317H16.7522Z" fill="#959595"/>
</svg>
