<?xml version="1.0" encoding="UTF-8"?>
<svg width="11068px" height="4034px" viewBox="0 0 11068 4034" version="1.1" xmlns="http://www.w3.org/2000/svg" xmlns:xlink="http://www.w3.org/1999/xlink">
    <title>click</title>
    <defs>
        <path d="M0.0599999999,2022.56509 L0.0599999999,1993.041 C2.41332982,1837.78366 41.9621403,1679.07756 124.235,1502.233 C271.422,1185.782 492.45,965.837 705.203,753.034 C918,540.256 1175.089,312.182 1469.711,141.448 C1903.099,-109.73 2264.249,19.03 2562.932,179.677 C2861.597,340.316 3114.631,532.614 3327.415,745.386 C3540.193,958.164 3771.164,1273.5 3854.509,1500.992 C4007.773,1919.406 4048.322,2197.318 3839.625,2587.806 C3693.603,2861.042 3524.903,3055.431 3312.106,3268.202 C3099.334,3480.986 2844.64,3690.837 2562.932,3864.511 C2168.623,4107.603 1820.488,4071.263 1431.476,3864.511 C1121.653,3699.797 979.18,3580.357 766.376,3367.579 C553.611,3154.802 281.396,2849.649 154.803,2587.806 C57.5034188,2386.57426 2.84360684,2206.3412 0.0599999999,2022.56508 L0.0599999999,2022.56509 Z M222.567,1505.7 C61.071,1852.795 88.281,2119.789 249.225,2452.652 C359.653,2681.069 597.112,2947.258 782.719,3132.877 C968.345,3318.483 1092.625,3422.67 1362.888,3566.353 C1702.246,3746.713 2005.917,3778.409 2349.882,3566.353 C2595.63,3414.851 2817.805,3231.792 3003.41,3046.173 C3189.029,2860.579 3336.198,2691.004 3463.571,2452.652 C3645.615,2112.026 3610.251,1869.593 3476.555,1504.603 C3403.848,1306.165 3202.381,1031.086 3016.756,845.486 C2831.15,659.867 2610.432,492.124 2349.882,351.989 C2089.358,211.86 1774.3,99.537 1396.244,318.639 C1139.25,467.588 914.977,666.526 729.352,852.133 C543.765,1037.777 350.959,1229.637 222.567,1505.7 Z" id="path-1"></path>
        <linearGradient x1="36.5764016%" y1="49.5530287%" x2="-0.550684137%" y2="49.5530287%" id="linearGradient-3">
            <stop stop-color="#0095CC" offset="0%"></stop>
            <stop stop-color="#00799E" offset="100%"></stop>
        </linearGradient>
        <path d="M2710.8,1846.542 C2607.4,2077.868 2452.161,2238.661 2302.709,2394.202 C2153.252,2549.748 1972.679,2716.461 1765.736,2841.277 C1461.325,3024.888 1207.662,2930.769 997.875,2813.336 C788.088,2695.899 610.364,2555.338 460.907,2399.793 C311.454,2244.247 149.228,2013.755 90.696,1847.459 C-16.964,1541.588 -45.444,1338.434 101.142,1052.987 C203.705,853.246 322.194,711.158 471.651,555.617 C621.104,400.071 800.002,246.675 997.875,119.724 C1274.838,-57.977 1513.07,-18.4 1792.588,119.724 C2002.121,223.265 2110.293,327.426 2259.745,482.967 C2409.203,638.512 2600.407,861.584 2689.321,1052.987 C2818.896,1331.917 2840.816,1555.67 2710.8,1846.542 Z M2577.575,1827.323 C2690.99,1573.587 2671.869,1378.405 2558.837,1135.086 C2481.274,968.122 2314.486,773.533 2184.113,637.85 C2053.737,502.162 1966.444,426.006 1776.596,320.978 C1538.257,189.131 1180.169,254.615 1083.352,320.978 C926.32,428.628 754.689,565.538 624.317,701.222 C493.945,836.905 390.584,960.85 301.11,1135.086 C173.244,1384.093 198.088,1561.302 292,1828.12 C343.059,1973.187 484.572,2174.252 614.944,2309.935 C745.32,2445.618 932.756,2588.467 1083.352,2670.677 C1233.953,2752.888 1565.394,2781.032 1753.176,2695.051 C1944.154,2607.607 2097.693,2454.234 2228.065,2318.551 C2358.437,2182.863 2487.376,2029.11 2577.575,1827.323 Z" id="path-4"></path>
        <linearGradient x1="30.4279425%" y1="49.763686%" x2="4.3503184%" y2="49.763686%" id="linearGradient-6">
            <stop stop-color="#008BB4" offset="0%"></stop>
            <stop stop-color="#00ACE5" offset="100%"></stop>
        </linearGradient>
        <path d="M3119.174,2068.895 C2999.299,2331.536 2819.285,2514.081 2646.01,2690.698 C2472.701,2867.295 2263.317,3056.587 2023.365,3198.289 C1670.397,3406.756 1376.263,3299.891 1133.003,3166.561 C889.76,3033.236 683.678,2873.637 510.378,2697.046 C337.084,2520.45 148.962,2258.729 81.093,2069.925 C-43.731,1722.665 -18.34,1505.146 122.896,1184.402 C227.267,947.378 349.547,779.811 522.847,603.215 C696.146,426.618 872.398,277.179 1106.621,141.277 C1414.566,-37.396 1750.881,-43.523 2054.505,108.303 C2311.055,236.59 2422.873,344.138 2596.188,520.736 C2769.473,697.332 2991.175,950.596 3094.278,1167.915 C3244.545,1484.615 3269.941,1738.647 3119.174,2068.895 Z M3039.088,2066.018 C3170.617,1777.943 3148.456,1556.349 3017.377,1280.087 C2927.44,1090.511 2734.044,869.584 2582.879,715.529 C2431.698,561.483 2330.48,475.013 2110.366,355.762 C1833.979,206.07 1586.658,179.77 1306.52,355.762 C1106.379,481.502 908.003,625.697 756.833,779.743 C605.663,933.788 503.226,1082.269 399.489,1280.087 C251.229,1562.792 280.026,1764.001 388.914,2066.928 C448.129,2231.623 612.211,2459.927 763.392,2613.967 C914.557,2768.023 1094.318,2907.243 1306.52,3023.549 C1518.701,3139.85 1775.296,3233.073 2083.2,3051.228 C2292.506,2927.607 2475.162,2762.496 2626.343,2608.451 C2777.492,2454.374 2934.52,2295.138 3039.088,2066.018 Z" id="path-7"></path>
        <linearGradient x1="3.2546603%" y1="53.312461%" x2="33.1938451%" y2="53.312461%" id="linearGradient-9">
            <stop stop-color="#0085AC" offset="0%"></stop>
            <stop stop-color="#066D97" offset="100%"></stop>
        </linearGradient>
    </defs>
    <g id="Page-1" stroke="none" stroke-width="1" fill="none" fill-rule="evenodd">
        <g id="click">
            <path d="M314.669,1522.204 C437.926,1252.67 606.117,1065.319 784.278,884.088 C962.438,702.857 1194.58,508.603 1441.27,363.17 C1804.154,149.238 2106.544,258.897 2356.629,395.726 C2606.715,532.56 2818.577,696.337 2996.743,877.574 C3174.905,1058.81 3368.292,1327.373 3438.068,1521.136 C3566.408,1877.526 3600.359,2114.235 3425.616,2446.829 C3303.351,2679.56 3162.096,2845.117 2983.935,3026.348 C2805.775,3207.579 2613.702,3425.198 2377.444,3572.476 C2099.312,3745.849 1742.465,3695.169 1409.261,3534.237 C1159.483,3413.6 1030.527,3292.229 852.366,3110.997 C674.2,2929.761 446.266,2669.845 340.274,2446.829 C185.808,2121.828 159.678,1861.113 314.669,1522.204 Z M473.484,1544.597 C581.005,1309.481 719.957,1121.897 875.372,963.804 C1030.787,805.71 1228.579,635.43 1456.242,533.548 C1680.091,433.366 2075.203,466.159 2254.733,561.948 C2434.257,657.736 2657.702,824.179 2813.118,982.273 C2968.533,1140.366 3166.903,1362.783 3227.765,1531.806 C3339.71,1842.693 3401.596,2037.206 3311.84,2345.238 C3249.497,2559.171 3062.041,2790.86 2912.748,2948.953 C2763.457,3107.047 2453.273,3445.81 2242.296,3532.613 C1940.713,3656.693 1642.028,3520.696 1382.408,3360.967 C1163.122,3226.048 1036.719,3100.878 893.549,2942.784 C750.38,2784.691 588.279,2545.705 495.822,2351.17 C361.083,2067.668 338.285,1840.237 473.484,1544.597 L473.484,1544.597 Z" id="Fill-1" fill="#28ACD4"></path>
            <g id="Group-4">
                <mask id="mask-2" fill="white">
                    <use xlink:href="#path-1"></use>
                </mask>
                <g id="Clip-3"></g>
                <polygon id="Fill-2" fill="url(#linearGradient-3)" mask="url(#mask-2)" points="0.06 4034 11068.02 4034 11068.02 -0.04 0.06 -0.04"></polygon>
            </g>
            <g id="Group-7" transform="translate(527.000000, 524.000000)">
                <mask id="mask-5" fill="white">
                    <use xlink:href="#path-4"></use>
                </mask>
                <g id="Clip-6"></g>
                <polygon id="Fill-5" fill="url(#linearGradient-6)" mask="url(#mask-5)" points="-526.94 3510 10541.02 3510 10541.02 -524.04 -526.94 -524.04"></polygon>
            </g>
            <path d="M1843.419,3208.948 C1655.638,3118.788 1482.796,2988.611 1356.52,2858.283 C1230.243,2727.955 1119.887,2610.237 1020.02,2374.232 C920.438,2138.902 947.67,1898.126 1042.999,1715.183 C1138.328,1532.239 1268.016,1377.249 1394.281,1246.917 C1520.547,1116.585 1707.681,975.11 1842.682,924.058 C2090.983,830.18 2255.905,805.343 2487.634,933.176 C2649.781,1022.618 2765.138,1125.951 2891.404,1256.294 C3017.677,1386.622 3157.179,1534.009 3245.273,1715.183 C3353.597,1937.964 3355.989,2151.206 3245.273,2408.229 C3160.676,2604.617 3076.646,2685.272 2950.377,2815.619 C2824.107,2945.943 2643.02,3112.682 2487.634,3190.224 C2261.189,3303.237 2079.552,3322.322 1843.419,3208.948 Z M1779.738,3082.38 C1615.925,3003.725 1507.235,2901.226 1397.079,2787.537 C1286.922,2673.849 1197.438,2535.913 1117.503,2373.762 C1003.35,2142.205 1032.985,1949.22 1100.277,1794.921 C1167.569,1640.622 1262.225,1494.943 1372.37,1381.25 C1482.514,1267.557 1645.751,1144.135 1763.511,1099.612 C1980.102,1017.715 2181.808,935.745 2383.938,1047.241 C2525.373,1125.252 2670.978,1222.565 2781.123,1336.258 C2891.268,1449.95 3045.447,1633.523 3112.031,1796.431 C3206.176,2026.762 3156.566,2192.685 3061.507,2394.287 C2982.025,2562.854 2872.056,2656.073 2761.908,2769.765 C2651.759,2883.458 2468.084,3022.2 2332.542,3089.84 C2135.014,3188.411 1985.719,3181.281 1779.738,3082.38 L1779.738,3082.38 Z" id="Fill-8" fill="#28ACD4"></path>
            <g id="Group-11" transform="translate(404.000000, 469.000000)">
                <mask id="mask-8" fill="white">
                    <use xlink:href="#path-7"></use>
                </mask>
                <g id="Clip-10"></g>
                <polygon id="Fill-9" fill="url(#linearGradient-9)" mask="url(#mask-8)" points="-403.94 3565 10664.02 3565 10664.02 -469.04 -403.94 -469.04"></polygon>
            </g>
            <path d="M5992.976,2638.985 C5992.976,2662.701 5992.493,2683.029 5991.041,2699.485 C5989.588,2715.941 5987.168,2730.461 5984.264,2742.077 C5981.844,2754.177 5977.972,2764.341 5973.132,2773.053 C5968.292,2781.281 5961.033,2790.961 5950.384,2801.609 C5940.22,2812.257 5919.892,2826.293 5890.369,2843.233 C5860.36,2859.689 5824.061,2876.145 5780.985,2891.633 C5737.909,2906.637 5689.025,2919.705 5633.848,2929.869 C5578.672,2940.033 5518.657,2945.357 5454.284,2945.357 C5328.928,2945.357 5215.672,2925.997 5114.516,2887.277 C5013.359,2848.557 4927.208,2790.477 4856.544,2713.521 C4785.396,2636.565 4731.188,2540.733 4693.436,2425.057 C4655.684,2309.865 4636.808,2175.797 4636.808,2022.852 C4636.808,1867.004 4657.62,1728.581 4699.244,1607.581 C4740.868,1486.58 4798.948,1384.94 4873.483,1302.66 C4948.02,1220.38 5037.56,1158.428 5142.104,1115.836 C5246.165,1073.244 5361.356,1051.948 5487.196,1051.948 C5538.016,1051.948 5586.9,1056.304 5634.332,1065.016 C5681.764,1073.244 5725.325,1084.376 5765.497,1098.412 C5805.668,1111.964 5841.485,1127.936 5873.913,1145.844 C5905.855,1164.236 5928.604,1179.724 5941.189,1192.308 C5953.772,1205.376 5962.485,1216.024 5967.324,1224.252 C5972.165,1232.964 5976.037,1243.612 5978.456,1256.681 C5981.361,1270.232 5983.78,1285.72 5985.232,1303.628 C5986.685,1321.536 5987.168,1343.316 5987.168,1369.937 C5987.168,1398.008 5986.201,1422.208 5984.264,1442.052 C5982.328,1461.896 5978.941,1477.869 5974.584,1489.968 C5969.744,1502.068 5963.937,1511.265 5957.644,1516.588 C5950.869,1522.396 5943.125,1525.301 5934.897,1525.301 C5920.861,1525.301 5902.953,1517.072 5881.172,1500.616 C5859.393,1484.161 5831.32,1465.768 5796.956,1445.44 C5762.592,1425.112 5721.453,1406.721 5673.536,1390.264 C5626.104,1373.808 5569.476,1365.581 5503.168,1365.581 C5430.568,1365.581 5365.712,1380.584 5308.6,1410.108 C5251.488,1440.116 5203.088,1482.225 5162.916,1537.4 C5122.744,1593.061 5092.251,1659.853 5071.44,1738.26 C5050.628,1816.184 5040.463,1904.757 5040.463,2003.008 C5040.463,2110.457 5051.596,2203.869 5073.86,2282.761 C5096.125,2361.168 5127.584,2426.509 5168.724,2477.329 C5209.38,2528.149 5259.232,2566.385 5317.312,2591.069 C5375.392,2616.237 5440.732,2628.821 5513.333,2628.821 C5579.156,2628.821 5636.268,2621.077 5684.668,2605.589 C5732.584,2590.101 5773.724,2572.677 5808.088,2554.285 C5842.936,2535.409 5871.008,2518.469 5893.273,2503.465 C5915.537,2488.461 5932.476,2480.717 5945.06,2480.717 C5954.256,2480.717 5962,2482.653 5967.324,2486.525 C5973.132,2490.397 5977.972,2497.657 5981.844,2509.273 C5985.232,2520.405 5988.136,2536.377 5990.073,2556.705 C5992.008,2577.517 5992.976,2604.621 5992.976,2638.985 Z M7250.797,2760.469 C7250.797,2788.541 7249.828,2812.741 7247.408,2832.101 C7244.989,2851.461 7241.117,2867.433 7236.76,2880.017 C7231.92,2893.085 7226.111,2902.281 7218.853,2907.605 C7211.592,2913.413 7203.364,2916.317 7194.168,2916.317 L6353.46,2916.317 C6322.484,2916.317 6296.348,2907.121 6275.052,2888.729 C6253.755,2870.337 6243.108,2840.329 6243.108,2798.705 L6243.108,1131.808 C6243.108,1122.612 6246.012,1113.9 6252.304,1106.156 C6258.596,1098.896 6268.76,1092.604 6282.796,1087.764 C6296.831,1082.924 6316.191,1079.536 6340.392,1076.632 C6364.592,1073.728 6394.601,1072.276 6430.417,1072.276 C6467.199,1072.276 6497.691,1073.728 6521.408,1076.632 C6544.64,1079.536 6563.999,1082.924 6578.035,1087.764 C6592.071,1092.604 6602.236,1098.896 6608.527,1106.156 C6614.82,1113.9 6617.724,1122.612 6617.724,1131.808 L6617.724,2608.493 L7194.168,2608.493 C7203.364,2608.493 7212.075,2610.913 7218.853,2616.237 C7226.111,2621.561 7231.92,2629.789 7236.76,2641.889 C7241.6,2653.505 7244.989,2668.993 7247.408,2688.837 C7249.828,2708.197 7250.797,2731.913 7250.797,2760.469 Z M7827.628,2865.497 C7827.628,2874.693 7824.724,2883.405 7818.433,2891.149 C7812.14,2898.409 7801.977,2904.701 7787.94,2909.541 C7773.904,2913.897 7754.544,2917.769 7731.312,2920.673 C7707.597,2923.577 7677.104,2925.029 7640.319,2925.029 C7604.504,2925.029 7574.496,2923.577 7550.295,2920.673 C7526.096,2917.769 7506.736,2913.897 7492.7,2909.541 C7478.664,2904.701 7468.499,2898.409 7462.208,2891.149 C7455.915,2883.405 7453.011,2874.693 7453.011,2865.497 L7453.011,1131.808 C7453.011,1122.612 7455.915,1113.9 7462.208,1106.156 C7468.499,1098.896 7478.664,1092.604 7493.667,1087.764 C7508.188,1082.924 7527.064,1079.536 7550.78,1076.632 C7574.496,1073.728 7604.504,1072.276 7640.319,1072.276 C7677.104,1072.276 7707.597,1073.728 7731.312,1076.632 C7754.544,1079.536 7773.904,1082.924 7787.94,1087.764 C7801.977,1092.604 7812.14,1098.896 7818.433,1106.156 C7824.724,1113.9 7827.628,1122.612 7827.628,1131.808 L7827.628,2865.497 Z M9478.455,2638.985 C9478.455,2662.701 9477.973,2683.029 9476.52,2699.485 C9475.068,2715.941 9472.647,2730.461 9469.744,2742.077 C9467.323,2754.177 9463.451,2764.341 9458.612,2773.053 C9453.771,2781.281 9446.511,2790.961 9435.863,2801.609 C9425.699,2812.257 9405.371,2826.293 9375.847,2843.233 C9345.839,2859.689 9309.539,2876.145 9266.463,2891.633 C9223.387,2906.637 9174.504,2919.705 9119.327,2929.869 C9064.151,2940.033 9004.136,2945.357 8939.763,2945.357 C8814.408,2945.357 8701.151,2925.997 8599.995,2887.277 C8498.839,2848.557 8412.688,2790.477 8342.023,2713.521 C8270.875,2636.565 8216.667,2540.733 8178.915,2425.057 C8141.164,2309.865 8122.286,2175.797 8122.286,2022.852 C8122.286,1867.004 8143.099,1728.581 8184.723,1607.581 C8226.347,1486.58 8284.427,1384.94 8358.963,1302.66 C8433.5,1220.38 8523.039,1158.428 8627.583,1115.836 C8731.643,1073.244 8846.835,1051.948 8972.675,1051.948 C9023.496,1051.948 9072.379,1056.304 9119.812,1065.016 C9167.244,1073.244 9210.803,1084.376 9250.975,1098.412 C9291.147,1111.964 9326.964,1127.936 9359.392,1145.844 C9391.335,1164.236 9414.084,1179.724 9426.668,1192.308 C9439.252,1205.376 9447.963,1216.024 9452.805,1224.252 C9457.644,1232.964 9461.517,1243.612 9463.936,1256.681 C9466.84,1270.232 9469.26,1285.72 9470.711,1303.628 C9472.164,1321.536 9472.647,1343.316 9472.647,1369.937 C9472.647,1398.008 9471.679,1422.208 9469.744,1442.052 C9467.808,1461.896 9464.419,1477.869 9460.064,1489.968 C9455.224,1502.068 9449.415,1511.265 9443.123,1516.588 C9436.348,1522.396 9428.604,1525.301 9420.375,1525.301 C9406.339,1525.301 9388.432,1517.072 9366.651,1500.616 C9344.871,1484.161 9316.799,1465.768 9282.436,1445.44 C9248.072,1425.112 9206.932,1406.721 9159.016,1390.264 C9111.583,1373.808 9054.955,1365.581 8988.648,1365.581 C8916.047,1365.581 8851.191,1380.584 8794.079,1410.108 C8736.967,1440.116 8688.567,1482.225 8648.395,1537.4 C8608.223,1593.061 8577.73,1659.853 8556.919,1738.26 C8536.106,1816.184 8525.943,1904.757 8525.943,2003.008 C8525.943,2110.457 8537.076,2203.869 8559.34,2282.761 C8581.604,2361.168 8613.064,2426.509 8654.203,2477.329 C8694.859,2528.149 8744.711,2566.385 8802.791,2591.069 C8860.871,2616.237 8926.211,2628.821 8998.811,2628.821 C9064.635,2628.821 9121.748,2621.077 9170.148,2605.589 C9218.063,2590.101 9259.204,2572.677 9293.568,2554.285 C9328.416,2535.409 9356.487,2518.469 9378.751,2503.465 C9401.015,2488.461 9417.955,2480.717 9430.539,2480.717 C9439.735,2480.717 9447.48,2482.653 9452.805,2486.525 C9458.612,2490.397 9463.451,2497.657 9467.323,2509.273 C9470.711,2520.405 9473.615,2536.377 9475.552,2556.705 C9477.487,2577.517 9478.455,2604.621 9478.455,2638.985 Z M11067.331,2861.141 C11067.331,2871.789 11064.912,2880.985 11059.588,2888.729 C11054.264,2896.957 11044.584,2903.249 11029.579,2908.573 C11015.061,2913.897 10995.215,2917.769 10969.564,2920.673 C10943.911,2923.577 10911.967,2925.029 10873.247,2925.029 C10811.779,2925.029 10767.735,2922.609 10740.631,2917.769 C10713.527,2913.413 10694.168,2906.153 10682.551,2896.473 C10670.935,2887.277 10661.74,2875.661 10654.963,2862.593 L10100.299,1991.393 L10100.299,2862.593 C10100.299,2872.757 10097.395,2881.953 10091.588,2889.697 C10086.263,2896.957 10076.1,2903.733 10062.062,2908.573 C10048.027,2913.897 10029.15,2917.769 10005.436,2920.673 C9982.203,2923.577 9951.711,2925.029 9915.41,2925.029 C9879.596,2925.029 9849.587,2923.577 9825.387,2920.673 C9801.187,2917.769 9782.311,2913.897 9768.275,2908.573 C9754.238,2903.249 9744.075,2896.957 9737.783,2889.697 C9731.49,2881.953 9728.588,2872.757 9728.588,2862.593 L9728.588,1133.26 C9728.588,1122.612 9731.49,1113.9 9737.783,1106.156 C9744.075,1098.896 9754.238,1092.604 9768.275,1087.764 C9782.311,1082.924 9801.187,1079.536 9825.387,1076.632 C9849.587,1073.728 9879.596,1072.276 9915.41,1072.276 C9951.711,1072.276 9982.203,1073.728 10005.436,1076.632 C10029.15,1079.536 10048.027,1082.924 10062.062,1087.764 C10076.1,1092.604 10086.263,1098.896 10091.588,1106.156 C10097.395,1113.9 10100.299,1122.612 10100.299,1133.26 L10100.299,1914.92 L10637.539,1134.712 C10644.316,1122.612 10652.059,1112.448 10661.74,1104.22 C10670.935,1095.992 10683.52,1089.7 10698.522,1084.86 C10713.527,1080.504 10732.887,1077.116 10756.604,1075.18 C10780.319,1073.244 10810.328,1072.276 10847.111,1072.276 C10884.863,1072.276 10915.84,1073.728 10940.523,1076.632 C10965.207,1079.536 10984.568,1083.408 10999.571,1088.732 C11014.092,1093.572 11024.255,1100.348 11029.579,1107.608 C11035.387,1115.352 11038.291,1123.58 11038.291,1133.26 C11038.291,1149.232 11033.936,1165.688 11025.707,1183.112 C11016.996,1200.052 11001.023,1226.672 10977.308,1263.94 L10474.916,1923.633 L11023.287,2753.209 C11044.1,2791.929 11056.684,2818.065 11061.039,2830.649 C11065.396,2843.233 11067.331,2853.397 11067.331,2861.141 L11067.331,2861.141 Z" id="Fill-12" fill="#1A1919"></path>
        </g>
    </g>
</svg>