<?xml version="1.0" encoding="UTF-8"?>
<svg width="413px" height="404px" viewBox="0 0 413 404" version="1.1" xmlns="http://www.w3.org/2000/svg" xmlns:xlink="http://www.w3.org/1999/xlink">
    <title>payme</title>
    <g id="Page-1" stroke="none" stroke-width="1" fill="none" fill-rule="evenodd">
        <g id="payme">
            <polygon id="path4" points="151.218 255.0942 151.218 148.7953 260.0579 148.7953 260.0579 255.0942 151.218 255.0942"></polygon>
            <g id="g6">
                <path d="M378.143,298.5709 C383.9095,306.808 384.4918,319.7839 378.3657,329.8438 C372.9004,338.8274 340.1588,373.3004 329.5052,384.3766 C320.2718,394.0025 307.8054,403.637 295.5318,403.637 L38.6529,403.637 C3.9358,403.637 1.8391,391.9029 1.8391,365.3659 L1.8391,257.7363 C1.8391,230.6355 9.8607,222.8037 33.5687,222.8037 L295.5332,222.8037 C307.8068,222.8037 318.7245,229.0497 331.2622,241.7615 C341.9044,252.555 373.714,292.2349 378.143,298.5709 Z" id="path8" fill="#33CCCC"></path>
                <g id="g10" transform="translate(27.000000, 254.000000)" fill="#FFFFFF">
                    <g id="g12">
                        <path d="M33.0729,10.4248 C33.0729,9.6654 33.0729,10.4619 33.0729,9.7154 C33.0729,6.2527 32.7817,2.8342 27.0952,2.8342 L5.6252,2.8342 C0.6367,2.8342 0.3198,5.5875 0.3198,9.8581 L0.3198,38.302 C10.7722,23.4078 22.3579,16.4852 33.0729,10.4248 Z" id="path14"></path>
                        <path d="M177.0967,113.2086 L177.0967,111.6827 L177.111,111.6827 L177.111,43.2192 C177.111,14.5069 164.4491,0.1594 139.1267,0.1594 C131.8716,0.1594 125.233,1.9678 119.214,5.5904 C113.1863,9.2115 107.4014,14.2757 101.8419,20.7687 C99.1114,13.7105 94.995,8.5136 89.4883,5.1722 C83.9816,1.8293 76.8478,0.1651 68.094,0.1651 C57.9542,0.1651 46.1673,3.7077 37.8145,10.5575 C35.9447,12.423 0.3184,40.3845 0.3184,69.1039 C0.3184,84.8474 0.3184,101.5587 0.3184,101.5587 C0.3184,101.5587 0.3184,112.669 0.3184,112.9374 C0.3184,114.3305 -0.3582,119.6216 5.5867,119.6216 L27.9331,119.6216 C34.8813,119.6216 34.2019,115.0855 34.2019,113.22 C34.2019,112.7632 34.2019,101.2903 34.2019,101.2903 L34.2019,42.3171 C37.9715,37.3286 45.682,25.005 58.2011,25.005 C63.0055,25.005 66.4682,26.6293 68.5821,29.8693 C70.7046,33.1094 71.7694,38.5547 71.7694,46.1795 L71.7694,101.5472 L71.7437,101.5472 C71.7437,101.5472 71.7437,112.6576 71.7437,112.926 C71.7437,114.319 71.0671,119.6102 77.012,119.6102 L99.0786,119.6102 C106.0311,119.6102 105.3517,115.0741 105.3517,113.2086 L105.3517,111.6827 L105.3774,111.6827 L105.3774,42.3171 C109.4182,37.3286 117.4741,25.005 129.3737,25.005 C134.2724,25.005 137.8036,26.6293 139.9703,29.8693 C142.1298,33.1094 143.2103,38.5547 143.2103,46.1795 L143.2103,101.5472 L143.1875,101.5472 C143.1875,101.5472 143.1875,112.6576 143.1875,112.926 C143.1875,114.319 142.5152,119.6102 148.4601,119.6102 L170.8121,119.6102 C177.7761,119.6102 177.0967,115.0741 177.0967,113.2086 L177.0967,113.2086 Z" id="path16"></path>
                    </g>
                    <g id="g18" transform="translate(192.000000, 1.000000)">
                        <path d="M108.1829,84.3727 C100.2341,105.6914 81.1963,117.6025 57.6124,117.6025 C23.442,117.6025 0.8787,94.3926 0.8787,59.577 C0.8787,25.184 24.3041,0.2527 56.5448,0.2527 C88.4372,0.2527 109.8343,22.3978 111.1946,58.074 C111.3687,62.6329 110.0313,66.658 104.322,66.658 C100.5081,66.658 31.8291,66.658 31.8291,66.658 C32.2601,85.7857 41.5078,96.1068 57.838,96.1068 C67.7965,96.1068 73.6956,91.8248 78.8383,83.4364 C81.0735,79.7838 85.651,79.9879 85.651,79.9879 C85.651,79.9879 101.2675,79.9879 104.322,79.9879 C107.3636,79.9839 108.7167,82.9525 108.1829,84.3727 Z M56.5434,22.385 C42.9965,22.385 33.5404,31.841 31.8219,47.3248 L80.3998,47.3248 C79.1081,33.7794 71.7973,22.385 56.5434,22.385 Z" id="path20"></path>
                    </g>
                </g>
                <path d="M133.6691,23.6348 C130.569,18.8275 126.9164,14.938 122.6986,11.9421 C118.4809,8.9546 113.7293,6.5796 108.4424,4.8082 C103.1627,3.0526 97.3663,1.8508 91.0632,1.2099 C84.7644,0.5676 77.9845,0.2508 70.7265,0.2508 C70.7265,0.2508 16.5634,0.2508 11.2124,0.2508 C5.8613,0.2508 0.2533,3.7549 0.2533,10.3649 L0.2533,106.5786 C7.791,122.6133 22.4783,139.6386 39.1739,147.773 L39.1739,128.6909 C39.1739,118.6225 46.7801,116.3716 49.926,116.3716 C53.0718,116.3716 67.5207,116.3716 67.5207,116.3716 C91.7583,116.3716 110.2551,111.296 123.0169,101.1491 C135.7773,91.0136 142.1561,75.9523 142.1561,55.9853 C142.1561,49.902 141.4881,44.1913 140.1578,38.8516 C138.8161,33.5148 136.6565,28.4392 133.6691,23.6348 L133.6691,23.6348 Z M98.9935,73.0463 C96.8068,76.7288 93.8693,79.4778 90.1868,81.2948 C86.5014,83.1147 82.2565,84.2294 77.4564,84.6591 C72.6491,85.0858 67.6834,85.3014 62.5579,85.3014 C62.5579,85.3014 49.926,85.3014 45.8352,85.3014 C41.7445,85.3014 39.1739,81.9814 39.1739,77.0842 L39.1739,37.7483 C39.1739,33.3378 42.0585,31.4866 45.5184,31.4866 C48.9782,31.4866 62.5579,31.4866 62.5579,31.4866 C68.1088,31.4866 73.3128,31.6493 78.1743,31.9661 C83.0359,32.283 87.2493,33.3036 90.8291,35.0135 C94.4089,36.7234 97.2079,39.3369 99.2432,42.861 C101.2672,46.3808 102.2835,51.3508 102.2835,57.7524 C102.2745,64.2624 101.183,69.3609 98.9935,73.0463 L98.9935,73.0463 Z M39.1739,153.9919 C20.8126,146.6725 8.5019,137.9486 0.2533,129.2975 C0.2533,155.5634 0.2533,175.7444 0.2533,175.7444 C0.2533,175.7444 -0.4304,183.3207 6.9646,183.3207 L32.9264,183.3207 C40.0488,183.3207 39.1696,175.7444 39.1696,175.7444 C39.1696,175.7444 39.1736,165.2121 39.1736,153.9919 L39.1739,153.9919 Z M407.1137,50.8669 L383.8124,50.8669 C379.0765,50.8669 375.9578,52.8495 374.0766,58.0421 C372.1882,63.2348 347.501,131.8154 347.501,131.8154 C347.501,131.8154 323.8758,64.6507 322.0174,59.4509 C320.1676,54.2511 317.1045,50.8669 311.6021,50.8669 L290.1964,50.8669 C282.6429,50.8669 282.6429,56.7804 283.5793,59.1298 C284.3386,61.0253 313.6589,141.1516 324.8264,171.6723 C327.4584,178.8774 328.5003,181.0456 328.5803,183.7161 C328.6673,186.3938 325.9411,191.9904 324.0599,195.2076 C323.1307,196.7933 322.1344,198.135 321.0953,199.3611 C342.9878,192.8282 368.2216,169.1116 381.2703,143.4196 C394.1706,107.6177 411.1873,60.3216 411.9238,57.9008 C413.1099,53.9913 413.0956,50.8669 407.1137,50.8669 L407.1137,50.8669 Z M304.2257,206.1752 C302.2045,206.1295 300.192,206.0054 298.1752,205.7413 C295.7202,205.4159 291.1241,205.8741 291.1241,209.8877 L291.1241,227.8265 C291.1241,234.6734 294.4056,235.1301 296.2155,235.5341 C300.9742,236.5946 306.4837,237.1284 312.7526,237.1284 C320.1133,237.1284 326.5221,235.791 331.9673,233.1219 C337.4126,230.4528 342.2199,226.7431 346.3863,221.9929 C350.5484,217.2428 354.2566,211.5848 357.5152,205.0219 C360.7667,198.459 363.894,191.2225 366.8814,183.3222 C366.8814,183.3222 368.166,179.7538 370.2727,173.9032 C363.854,180.3676 333.5617,209.0085 304.2257,206.1752 L304.2257,206.1752 Z M269.2374,72.1627 C267.8515,68.9598 266.1401,66.2179 264.1204,63.9142 C262.085,61.6219 259.6871,59.5708 256.9066,57.7467 C253.9192,55.8212 250.879,54.2497 247.7831,53.0179 C244.6858,51.8018 241.3473,50.7827 237.7718,49.9777 C234.1963,49.1727 230.2712,48.6146 226.0048,48.2977 C221.73,47.9808 216.9256,47.8181 211.5859,47.8181 C176.2865,47.8181 156.1925,58.9399 151.2867,81.1878 C149.6924,88.0918 156.5436,88.4986 156.5436,88.4986 C156.5436,88.4986 172.5897,88.4986 178.2591,88.4986 C183.9284,88.4986 183.6858,86.6787 186.4348,81.5646 C187.454,78.747 189.1653,76.4176 191.5675,74.5635 C195.7368,71.3606 201.9828,69.7634 210.307,69.7634 C218.3172,69.7634 224.1365,71.3121 227.7662,74.4051 C231.3987,77.5024 233.5326,82.1998 234.1706,88.4986 C234.1706,95.8094 231.8855,100.6852 223.0217,100.6852 C201.4133,99.903 178.1948,102.3437 165.1162,109.8173 C152.0304,117.2908 144.6396,131.9096 144.6396,147.6045 C144.6396,154.0061 145.7872,159.6141 148.0838,164.4214 C150.3761,169.2215 153.579,173.2509 157.6955,176.5095 C161.8005,179.7681 166.6877,182.1974 172.3485,183.7975 C178.005,185.3989 184.1996,186.2025 190.9252,186.2025 C200.3214,186.2025 208.6299,185.0207 215.8351,182.6756 C223.0403,180.3305 234.192,172.5929 235.6122,171.4639 L235.6122,175.5874 C235.6122,179.6739 236.8583,183.3179 241.7484,183.3179 L267.0008,183.3209 C272.1135,183.3209 273.2468,179.6769 273.2468,175.1937 C273.2468,170.7104 273.2468,97.6366 273.2468,97.6366 C273.2468,92.1942 272.9299,87.384 272.2876,83.2248 C271.6396,79.0513 270.6233,75.373 269.2374,72.1629 L269.2374,72.1627 Z M234.8031,148.2097 C234.8031,148.2097 228.2814,161.7152 205.0102,161.7152 C198.6086,161.7152 193.4017,160.2764 189.3937,157.3918 C185.39,154.5071 183.3846,150.0239 183.3846,143.9363 C183.3846,136.0288 186.6432,130.4537 193.1576,127.1908 C199.6677,123.9393 212.7007,122.0781 222.4665,122.3079 C232.2323,122.5377 234.8001,128.6866 234.8001,132.9344 C234.8031,134.4973 234.8031,148.2097 234.8031,148.2097 L234.8031,148.2097 Z" id="path22" fill="#333333"></path>
            </g>
        </g>
    </g>
</svg>